<svg xmlns="http://www.w3.org/2000/svg" width="300" height="300" viewBox="0 0 300 300">
  <rect width="300" height="300" fill="#0d1f0d" rx="12"/>
  <rect x="20" y="20" width="260" height="260" fill="#0a1a0a" rx="8"/>
  <!-- Maze walls -->
  <rect x="30" y="30" width="240" height="12" fill="#22c55e" rx="2"/>
  <rect x="30" y="258" width="240" height="12" fill="#22c55e" rx="2"/>
  <rect x="30" y="30" width="12" height="240" fill="#22c55e" rx="2"/>
  <rect x="258" y="30" width="12" height="240" fill="#22c55e" rx="2"/>
  <!-- Inner maze paths -->
  <rect x="54" y="54" width="12" height="96" fill="#22c55e" rx="2"/>
  <rect x="54" y="54" width="96" height="12" fill="#22c55e" rx="2"/>
  <rect x="138" y="54" width="12" height="60" fill="#22c55e" rx="2"/>
  <rect x="138" y="102" width="108" height="12" fill="#22c55e" rx="2"/>
  <rect x="54" y="138" width="72" height="12" fill="#22c55e" rx="2"/>
  <rect x="114" y="138" width="12" height="60" fill="#22c55e" rx="2"/>
  <rect x="54" y="186" width="48" height="12" fill="#22c55e" rx="2"/>
  <rect x="126" y="186" width="132" height="12" fill="#22c55e" rx="2"/>
  <rect x="174" y="138" width="12" height="60" fill="#22c55e" rx="2"/>
  <rect x="222" y="54" width="12" height="72" fill="#22c55e" rx="2"/>
  <!-- Player dot -->
  <circle cx="60" cy="246" r="8" fill="#86efac"/>
  <!-- Exit marker -->
  <rect x="246" y="246" width="12" height="12" fill="#fbbf24" rx="2"/>
  <!-- Title -->
  <text x="150" y="290" text-anchor="middle" font-family="Arial Black,Arial" font-size="14" font-weight="900" fill="#22c55e" letter-spacing="3">ASTRAY</text>
</svg>
