<svg xmlns="http://www.w3.org/2000/svg" viewBox="0 0 200 200">
  <defs>
    <linearGradient id="g1" x1="0%" y1="0%" x2="100%" y2="100%">
      <stop offset="0%" stop-color="#6c63ff"/>
      <stop offset="50%" stop-color="#ff6584"/>
      <stop offset="100%" stop-color="#ffd700"/>
    </linearGradient>
  </defs>
  <rect width="200" height="200" fill="url(#g1)" rx="12"/>
  <rect x="20" y="20" width="160" height="100" fill="rgba(0,0,0,0.3)" rx="8"/>
  <!-- mini gradient preview -->
  <defs>
    <linearGradient id="g2" x1="0%" y1="0%" x2="100%" y2="100%">
      <stop offset="0%" stop-color="#0f0c29"/>
      <stop offset="100%" stop-color="#302b63"/>
    </linearGradient>
    <linearGradient id="g3" x1="0%" y1="0%" x2="100%" y2="0%">
      <stop offset="0%" stop-color="#f7971e"/>
      <stop offset="100%" stop-color="#ffd200"/>
    </linearGradient>
  </defs>
  <rect x="28" y="28" width="56" height="36" rx="4" fill="url(#g2)"/>
  <rect x="92" y="28" width="56" height="36" rx="4" fill="url(#g3)"/>
  <!-- dots pattern -->
  <rect x="28" y="72" width="56" height="36" rx="4" fill="#1a1a2e"/>
  <circle cx="38" cy="80" r="3" fill="#6c63ff" opacity="0.7"/>
  <circle cx="50" cy="80" r="3" fill="#6c63ff" opacity="0.7"/>
  <circle cx="62" cy="80" r="3" fill="#6c63ff" opacity="0.7"/>
  <circle cx="74" cy="80" r="3" fill="#6c63ff" opacity="0.7"/>
  <circle cx="38" cy="93" r="3" fill="#6c63ff" opacity="0.7"/>
  <circle cx="50" cy="93" r="3" fill="#6c63ff" opacity="0.7"/>
  <circle cx="62" cy="93" r="3" fill="#6c63ff" opacity="0.7"/>
  <circle cx="74" cy="93" r="3" fill="#6c63ff" opacity="0.7"/>
  <!-- stars animation -->
  <rect x="92" y="72" width="56" height="36" rx="4" fill="#0d0d0d"/>
  <circle cx="104" cy="81" r="1.5" fill="#fff"/>
  <circle cx="115" cy="78" r="1" fill="#fff"/>
  <circle cx="126" cy="84" r="2" fill="#fff"/>
  <circle cx="138" cy="79" r="1" fill="#fff"/>
  <circle cx="109" cy="96" r="1.5" fill="#ffd700"/>
  <circle cx="132" cy="91" r="1" fill="#ff6584"/>
  <circle cx="121" cy="93" r="1.5" fill="#fff"/>
  <!-- label -->
  <text x="100" y="145" text-anchor="middle" fill="#fff" font-family="sans-serif" font-size="15" font-weight="bold">Background</text>
  <text x="100" y="163" text-anchor="middle" fill="rgba(255,255,255,0.8)" font-family="sans-serif" font-size="12">Workshop</text>
  <text x="100" y="183" text-anchor="middle" font-size="18">🎨</text>
</svg>
