<svg xmlns="http://www.w3.org/2000/svg" width="300" height="300" viewBox="0 0 300 300">
  <rect width="300" height="300" fill="#fffde7" rx="12"/>
  <rect x="10" y="10" width="280" height="280" fill="#fffde7" rx="10"/>
  <rect x="30" y="255" width="80" height="14" rx="7" fill="#81c784"/>
  <rect x="80" y="215" width="80" height="14" rx="7" fill="#81c784"/>
  <rect x="140" y="175" width="80" height="14" rx="7" fill="#81c784"/>
  <rect x="60" y="135" width="80" height="14" rx="7" fill="#81c784"/>
  <rect x="120" y="95" width="80" height="14" rx="7" fill="#81c784"/>
  <ellipse cx="165" cy="75" rx="22" ry="20" fill="#4caf50"/>
  <ellipse cx="165" cy="68" rx="14" ry="12" fill="#66bb6a"/>
  <circle cx="161" cy="65" r="3" fill="#fff"/>
  <circle cx="169" cy="65" r="3" fill="#fff"/>
  <circle cx="161" cy="65" r="1.5" fill="#333"/>
  <circle cx="169" cy="65" r="1.5" fill="#333"/>
  <ellipse cx="153" cy="73" rx="6" ry="4" fill="#4caf50"/>
  <ellipse cx="177" cy="73" rx="6" ry="4" fill="#4caf50"/>
  <path d="M160,72 Q165,76 170,72" fill="none" stroke="#333" stroke-width="1.5"/>
  <text x="150" y="292" text-anchor="middle" font-family="Arial Black,Arial" font-size="13" font-weight="900" fill="#388e3c" letter-spacing="1">DOODLE JUMP</text>
</svg>