<svg xmlns="http://www.w3.org/2000/svg" width="300" height="300" viewBox="0 0 300 300">
  <rect width="300" height="300" fill="#1a0030" rx="12"/>
  <rect x="0" y="200" width="300" height="30" fill="#4a0080"/>
  <rect x="0" y="198" width="300" height="4" fill="#9900ff"/>
  <rect x="40" y="160" width="40" height="40" fill="#4a0080"/>
  <rect x="40" y="157" width="40" height="4" fill="#cc44ff"/>
  <rect x="37" y="160" width="4" height="40" fill="#cc44ff"/>
  <rect x="120" y="140" width="40" height="60" fill="#4a0080"/>
  <rect x="120" y="137" width="40" height="4" fill="#cc44ff"/>
  <rect x="117" y="140" width="4" height="60" fill="#cc44ff"/>
  <rect x="200" y="120" width="40" height="80" fill="#4a0080"/>
  <rect x="200" y="117" width="40" height="4" fill="#cc44ff"/>
  <rect x="197" y="120" width="4" height="80" fill="#cc44ff"/>
  <rect x="80" y="152" width="34" height="34" rx="4" fill="#ff6600" transform="rotate(10,97,169)"/>
  <rect x="82" y="154" width="30" height="30" rx="3" fill="#ff8800" transform="rotate(10,97,169)"/>
  <circle cx="97" cy="164" r="4" fill="#fff" transform="rotate(10,97,169)"/>
  <text x="150" y="280" text-anchor="middle" font-family="Arial Black,Arial" font-size="13" font-weight="900" fill="#cc44ff" letter-spacing="2">GEOMETRY DASH LITE</text>
</svg>