<svg xmlns="http://www.w3.org/2000/svg" width="300" height="300" viewBox="0 0 300 300">
  <rect width="300" height="300" fill="#1a3a1a" rx="12"/>
  <ellipse cx="150" cy="270" rx="140" ry="20" fill="#0f2a0f"/>
  <path d="M10,240 Q150,180 290,240 L290,270 L10,270 Z" fill="#1e4620"/>
  <path d="M10,240 Q150,200 290,240" fill="none" stroke="#2d6a35" stroke-width="2" stroke-dasharray="15,8"/>
  <rect x="90" y="170" width="120" height="60" rx="10" fill="#4ade80"/>
  <rect x="100" y="155" width="100" height="35" rx="8" fill="#22c55e"/>
  <rect x="88" y="210" width="38" height="24" rx="12" fill="#1a1a1a"/>
  <rect x="174" y="210" width="38" height="24" rx="12" fill="#1a1a1a"/>
  <circle cx="107" cy="222" r="10" fill="#333"/>
  <circle cx="193" cy="222" r="10" fill="#333"/>
  <rect x="105" y="160" width="24" height="18" rx="4" fill="#86efac" opacity="0.7"/>
  <rect x="171" y="160" width="24" height="18" rx="4" fill="#86efac" opacity="0.7"/>
  <ellipse cx="150" cy="163" rx="18" ry="14" fill="#d97706"/>
  <circle cx="143" cy="160" r="4" fill="#1a1a1a"/>
  <circle cx="157" cy="160" r="4" fill="#1a1a1a"/>
  <ellipse cx="148" cy="170" rx="5" ry="3" fill="#a16207"/>
  <text x="150" y="295" text-anchor="middle" font-family="Arial Black,Arial" font-size="13" font-weight="900" fill="#4ade80" letter-spacing="2">GOPHER KART</text>
</svg>