<svg xmlns="http://www.w3.org/2000/svg" width="300" height="300" viewBox="0 0 300 300">
  <defs>
    <linearGradient id="sky" x1="0%" y1="0%" x2="0%" y2="100%">
      <stop offset="0%" style="stop-color:#87ceeb"/>
      <stop offset="60%" style="stop-color:#c9e8f5"/>
    </linearGradient>
  </defs>
  <rect width="300" height="300" fill="url(#sky)" rx="12"/>
  <path d="M0,220 Q50,100 130,130 Q180,150 220,80 Q260,30 300,60 L300,300 L0,300 Z" fill="#5a9e24"/>
  <path d="M0,230 Q50,120 130,150 Q180,170 220,100 Q260,50 300,80 L300,300 L0,300 Z" fill="#74bf2e"/>
  <rect x="145" y="110" width="70" height="36" rx="6" fill="#e53e3e"/>
  <rect x="150" y="98" width="55" height="26" rx="5" fill="#fc8181"/>
  <rect x="152" y="102" width="18" height="16" rx="2" fill="#bfdbfe" opacity="0.9"/>
  <rect x="178" y="102" width="18" height="16" rx="2" fill="#bfdbfe" opacity="0.9"/>
  <ellipse cx="162" cy="150" rx="14" ry="14" fill="#1a1a1a"/>
  <circle cx="162" cy="150" r="8" fill="#333"/>
  <ellipse cx="205" cy="150" rx="14" ry="14" fill="#1a1a1a"/>
  <circle cx="205" cy="150" r="8" fill="#333"/>
  <text x="150" y="290" text-anchor="middle" font-family="Arial Black,Arial" font-size="14" font-weight="900" fill="#1a3a00" letter-spacing="2">HILL RACING</text>
</svg>