<svg xmlns="http://www.w3.org/2000/svg" width="300" height="300" viewBox="0 0 300 300">
  <rect width="300" height="300" fill="#000010" rx="12"/>
  <circle cx="150" cy="150" r="100" fill="none" stroke="#1a1aff" stroke-width="1" opacity="0.3"/>
  <circle cx="150" cy="150" r="70" fill="none" stroke="#1a1aff" stroke-width="1" opacity="0.5"/>
  <circle cx="150" cy="150" r="40" fill="none" stroke="#3333ff" stroke-width="2" opacity="0.7"/>
  <polygon points="150,108 143,120 157,120" fill="#00ffff"/>
  <polygon points="190,130 182,140 190,152 185,140" fill="#ff44ff"/>
  <polygon points="170,182 163,170 177,170" fill="#00ffff" transform="rotate(180,170,176)"/>
  <polygon points="110,130 118,140 110,152 115,140" fill="#ff44ff"/>
  <circle cx="150" cy="150" r="8" fill="#ffffff"/>
  <circle cx="150" cy="150" r="5" fill="#00ffff"/>
  <circle cx="60" cy="60" r="5" fill="#ffff00"/>
  <circle cx="240" cy="80" r="4" fill="#ffff00"/>
  <circle cx="200" cy="240" r="5" fill="#ffff00"/>
  <circle cx="70" cy="220" r="4" fill="#ffff00"/>
  <polygon points="150,50 135,80 165,80" fill="none" stroke="#00ffff" stroke-width="1" opacity="0.3"/>
  <text x="150" y="290" text-anchor="middle" font-family="Arial Black,Arial" font-size="14" font-weight="900" fill="#00ffff" letter-spacing="3">RADIUS RAID</text>
</svg>