<svg xmlns="http://www.w3.org/2000/svg" width="300" height="300" viewBox="0 0 300 300">
  <rect width="300" height="300" fill="#000" rx="12"/>
  <rect x="20" y="28" width="36" height="28" rx="4" fill="#00ff00"/>
  <rect x="16" y="20" width="8" height="12" rx="2" fill="#00ff00"/>
  <rect x="48" y="20" width="8" height="12" rx="2" fill="#00ff00"/>
  <rect x="12" y="44" width="12" height="12" rx="2" fill="#00ff00"/>
  <rect x="52" y="44" width="12" height="12" rx="2" fill="#00ff00"/>
  <rect x="100" y="28" width="36" height="28" rx="4" fill="#00ff00"/>
  <rect x="96" y="20" width="8" height="12" rx="2" fill="#00ff00"/>
  <rect x="128" y="20" width="8" height="12" rx="2" fill="#00ff00"/>
  <rect x="92" y="44" width="12" height="12" rx="2" fill="#00ff00"/>
  <rect x="132" y="44" width="12" height="12" rx="2" fill="#00ff00"/>
  <rect x="180" y="28" width="36" height="28" rx="4" fill="#00ff00"/>
  <rect x="176" y="20" width="8" height="12" rx="2" fill="#00ff00"/>
  <rect x="208" y="20" width="8" height="12" rx="2" fill="#00ff00"/>
  <rect x="172" y="44" width="12" height="12" rx="2" fill="#00ff00"/>
  <rect x="212" y="44" width="12" height="12" rx="2" fill="#00ff00"/>
  <rect x="60" y="90" width="28" height="24" rx="4" fill="#00ffff"/>
  <rect x="56" y="82" width="36" height="12" rx="3" fill="#00ffff"/>
  <rect x="52" y="102" width="12" height="12" rx="2" fill="#00ffff"/>
  <rect x="96" y="102" width="12" height="12" rx="2" fill="#00ffff"/>
  <rect x="140" y="90" width="28" height="24" rx="4" fill="#00ffff"/>
  <rect x="136" y="82" width="36" height="12" rx="3" fill="#00ffff"/>
  <rect x="132" y="102" width="12" height="12" rx="2" fill="#00ffff"/>
  <rect x="176" y="102" width="12" height="12" rx="2" fill="#00ffff"/>
  <rect x="220" y="90" width="28" height="24" rx="4" fill="#00ffff"/>
  <rect x="216" y="82" width="36" height="12" rx="3" fill="#00ffff"/>
  <rect x="212" y="102" width="12" height="12" rx="2" fill="#00ffff"/>
  <rect x="256" y="102" width="12" height="12" rx="2" fill="#00ffff"/>
  <rect x="130" y="230" width="40" height="30" rx="4" fill="#ff0000"/>
  <polygon points="130,230 150,200 170,230" fill="#ff0000"/>
  <rect x="100" y="260" width="100" height="6" rx="3" fill="#00ff00"/>
  <rect x="50" y="240" width="50" height="4" rx="2" fill="#00ff00" opacity="0.6"/>
  <rect x="200" y="240" width="50" height="4" rx="2" fill="#00ff00" opacity="0.6"/>
  <rect x="147" y="200" width="6" height="30" fill="#ffffff"/>
  <text x="150" y="290" text-anchor="middle" font-family="Courier New,monospace" font-size="14" font-weight="900" fill="#00ff00" letter-spacing="2">SPACE INVADERS</text>
</svg>