<svg xmlns="http://www.w3.org/2000/svg" width="300" height="300" viewBox="0 0 300 300">
  <rect width="300" height="300" fill="#c8b46a" rx="12"/>
  <rect x="10" y="10" width="280" height="280" fill="#d4bc72" rx="8"/>
  <rect x="10" y="10" width="280" height="18" fill="#8b6914"/>
  <rect x="10" y="272" width="280" height="18" fill="#8b6914"/>
  <rect x="10" y="10" width="18" height="280" fill="#8b6914"/>
  <rect x="272" y="10" width="18" height="280" fill="#8b6914"/>
  <rect x="80" y="50" width="18" height="120" fill="#8b6914"/>
  <rect x="80" y="50" width="140" height="18" fill="#8b6914"/>
  <rect x="150" y="100" width="18" height="100" fill="#8b6914"/>
  <rect x="80" y="200" width="100" height="18" fill="#8b6914"/>
  <rect x="200" y="150" width="18" height="122" fill="#8b6914"/>
  <rect x="100" y="80" width="44" height="34" rx="6" fill="#2d5a1b"/>
  <rect x="106" y="72" width="32" height="22" rx="10" fill="#3a7524"/>
  <rect x="118" y="58" width="8" height="20" rx="3" fill="#2d5a1b" transform="rotate(30,122,68)"/>
  <rect x="190" y="190" width="44" height="34" rx="6" fill="#8b1a1a"/>
  <rect x="196" y="182" width="32" height="22" rx="10" fill="#a52020"/>
  <rect x="208" y="166" width="8" height="20" rx="3" fill="#8b1a1a" transform="rotate(-150,212,176)"/>
  <text x="150" y="295" text-anchor="middle" font-family="Arial Black,Arial" font-size="13" font-weight="900" fill="#5a3a00" letter-spacing="2">TANK TROUBLE</text>
</svg>