<svg xmlns="http://www.w3.org/2000/svg" width="200" height="200"><defs><linearGradient id="a" x1="0%" y1="0%" x2="100%" y2="100%"><stop offset="0%" style="stop-color:#0d1117"/><stop offset="100%" style="stop-color:#161b22"/></linearGradient><linearGradient id="b" x1="0%" y1="0%" x2="100%" y2="100%"><stop offset="0%" style="stop-color:#1a6cf5"/><stop offset="100%" style="stop-color:#4f9eff"/></linearGradient></defs><rect width="200" height="200" fill="url(#a)" rx="16"/><circle cx="20" cy="30" r="1.5" fill="#e6edf3" opacity=".25"/><circle cx="170" cy="20" r="1" fill="#e6edf3" opacity=".2"/><circle cx="185" cy="80" r="1.5" fill="#e6edf3" opacity=".18"/><circle cx="15" cy="150" r="1" fill="#e6edf3" opacity=".22"/><circle cx="175" cy="170" r="1.5" fill="#e6edf3" opacity=".2"/><circle cx="140" cy="30" r="1" fill="#e6edf3" opacity=".15"/><text x="100" y="98" text-anchor="middle" font-family="Arial Black, sans-serif" font-weight="900" font-size="52" fill="#ff4f6a" opacity=".45" transform="translate(-2)">404</text><text x="100" y="98" text-anchor="middle" font-family="Arial Black, sans-serif" font-weight="900" font-size="52" fill="#4fffb8" opacity=".45" transform="translate(2)">404</text><text x="100" y="98" text-anchor="middle" font-family="Arial Black, sans-serif" font-weight="900" font-size="52" fill="#4f9eff">404</text><text x="100" y="60" text-anchor="middle" font-size="22">🎮</text><rect x="36" y="114" width="128" height="9" rx="4.5" fill="#e6edf3" opacity=".12"/><rect x="50" y="130" width="100" height="5" rx="2.5" fill="#8b949e" opacity=".3"/><rect x="58" y="139" width="84" height="5" rx="2.5" fill="#8b949e" opacity=".22"/><rect x="64" y="154" width="72" height="18" rx="9" fill="url(#b)" opacity=".9"/><text x="100" y="166.5" text-anchor="middle" font-family="Arial, sans-serif" font-weight="800" font-size="7.5" fill="#fff">✏️ Customize</text></svg>