<svg xmlns="http://www.w3.org/2000/svg" width="300" height="300"><rect width="300" height="300" fill="#1a3a1a" rx="12"/><rect width="300" height="300" fill="#1e4620" rx="12"/><path stroke="#2d6a35" stroke-width="2" d="M150 0v300"/><circle cx="150" cy="150" r="50" fill="none" stroke="#2d6a35" stroke-width="2"/><path fill="none" stroke="#2d6a35" stroke-width="2" d="M0 220h80v80H0zm220 0h80v80h-80z"/><path fill="none" stroke="#2d6a35" stroke-width="2" d="M10 220h60v50H10zm220 0h60v50h-60z"/><circle cx="150" cy="110" r="28" fill="#f97316"/><path stroke="#7c2d12" stroke-width="2" d="M150 82v56m-28-28h56"/><path d="M126 88q24-13 48 0m-48 44q24 13 48 0" fill="none" stroke="#7c2d12" stroke-width="2"/><rect x="120" y="50" width="60" height="8" rx="4" fill="#888"/><path stroke="#888" stroke-width="3" d="M150 58v24"/><text x="150" y="285" text-anchor="middle" font-family="Arial Black,Arial" font-size="14" font-weight="900" fill="#fff" letter-spacing="2">BASKETBALL STARS</text></svg>