<svg xmlns="http://www.w3.org/2000/svg" viewBox="0 0 200 200"><rect width="200" height="200" fill="#0d0d1a" rx="12"/><path fill="#fff" opacity=".9" d="M60 40v60l15-15 13 30 8-3-13-30h17z"/><circle cx="55" cy="45" r="4" fill="#6c63ff" opacity=".9"/><circle cx="48" cy="52" r="5" fill="#8b5cf6" opacity=".8"/><circle cx="40" cy="62" r="4" fill="#ff6584" opacity=".7"/><circle cx="34" cy="73" r="5" fill="#ff8c00" opacity=".6"/><circle cx="30" cy="85" r="3" fill="gold" opacity=".5"/><circle cx="28" cy="97" r="4" fill="#4f8" opacity=".4"/><circle cx="29" cy="110" r="3" fill="#00d4ff" opacity=".3"/><path d="m130 50 3-7 3 7 7 3-7 3-3 7-3-7-7-3Z" fill="gold" opacity=".9"/><path d="m155 80 2-5 2 5 5 2-5 2-2 5-2-5-5-2Z" fill="#ff6584" opacity=".8"/><path d="m140 100 2-4 2 4 4 2-4 2-2 4-2-4-4-2Z" fill="#6c63ff" opacity=".7"/><path d="m160 120 1-3 1 3 3 1-3 1-1 3-1-3-3-1Z" fill="#4f8" opacity=".6"/><circle cx="100" cy="160" r="5" fill="#ff6584"/><circle cx="115" cy="155" r="4" fill="#ff8c00"/><circle cx="128" cy="148" r="5" fill="gold"/><circle cx="139" cy="138" r="4" fill="#4f8"/><circle cx="147" cy="126" r="5" fill="#00d4ff"/><circle cx="152" cy="112" r="4" fill="#6c63ff"/><text x="100" y="183" text-anchor="middle" fill="#fff" font-family="sans-serif" font-size="12" font-weight="bold" opacity=".9">Cursor Trail</text></svg>