<svg xmlns="http://www.w3.org/2000/svg" width="300" height="300"><rect width="300" height="300" fill="#0a0a0a" rx="12"/><path d="M0 150q75-70 150 0t150 0" fill="none" stroke="#1a1a1a" stroke-width="80"/><path d="M0 150q75-70 150 0t150 0" fill="none" stroke="#222" stroke-width="70"/><path d="M0 150q75-70 150 0t150 0" fill="none" stroke="#2a2a2a" stroke-width="2" stroke-dasharray="20,10"/><path d="M100 200q30-20 55-40" fill="none" stroke="rgba(255,255,255,0.15)" stroke-width="30" stroke-linecap="round"/><path d="M155 160q15-10 30-15" fill="none" stroke="rgba(255,255,255,0.08)" stroke-width="20" stroke-linecap="round"/><rect x="145" y="128" width="44" height="26" rx="4" fill="#e53e3e" transform="rotate(-20 167 141)"/><rect x="149" y="132" width="36" height="18" rx="3" fill="#c53030" transform="rotate(-20 167 141)"/><rect x="148" y="149" width="10" height="6" rx="2" fill="#1a1a1a" transform="rotate(-20 167 141)"/><rect x="180" y="147" width="10" height="6" rx="2" fill="#1a1a1a" transform="rotate(-20 167 141)"/><text x="150" y="285" text-anchor="middle" font-family="Arial Black,Arial" font-size="20" font-weight="900" fill="#e53e3e" letter-spacing="4">DRIFT</text></svg>