<svg xmlns="http://www.w3.org/2000/svg" width="300" height="300"><defs><linearGradient id="a" x1="0%" y1="0%" x2="100%" y2="0%"><stop offset="50%" style="stop-color:#7f1d1d"/><stop offset="50%" style="stop-color:#1e3a5f"/></linearGradient></defs><rect width="300" height="300" fill="url(#a)" rx="12"/><path fill="#14532d" opacity=".6" d="m30 120 30-60 30 60z"/><path fill="#15803d" opacity=".7" d="m60 110 30-60 30 60zm120 0 30-60 30 60z"/><path fill="#14532d" opacity=".6" d="m210 120 30-60 30 60z"/><path fill="#78350f" opacity=".7" d="M100 100h20v160h-20z"/><path fill="#1e40af" opacity=".7" d="M180 100h20v160h-20z"/><path d="M100 120q50-50 100 0" fill="none" stroke="#92400e" stroke-width="8"/><circle cx="100" cy="210" r="18" fill="#ef4444"/><path fill="#f97316" d="m100 170-12 25h24z"/><circle cx="95" cy="206" r="4" fill="#7f1d1d"/><circle cx="105" cy="206" r="4" fill="#7f1d1d"/><circle cx="200" cy="210" r="18" fill="#3b82f6"/><path fill="#93c5fd" d="m200 170-12 25h24z"/><circle cx="195" cy="206" r="4" fill="#1e3a8a"/><circle cx="205" cy="206" r="4" fill="#1e3a8a"/><ellipse cx="100" cy="240" rx="8" ry="14" fill="#fbbf24"/><ellipse cx="100" cy="240" rx="5" ry="9" fill="#ef4444"/><ellipse cx="200" cy="240" rx="8" ry="12" fill="#93c5fd"/><ellipse cx="200" cy="240" rx="5" ry="8" fill="#bfdbfe"/><rect x="55" y="270" width="190" height="22" rx="6" opacity=".5"/><text x="150" y="285" text-anchor="middle" font-family="Arial Black,Arial" font-size="10" font-weight="900" fill="#fff" letter-spacing="1">FIREBOY &amp; WATERGIRL 2</text></svg>