<svg xmlns="http://www.w3.org/2000/svg" width="300" height="300"><rect width="300" height="300" fill="#4ec0ca" rx="12"/><path fill="#74bf2e" d="M0 0h70v140H0zm0 180h70v120H0z"/><rect x="-5" y="130" width="80" height="20" rx="4" fill="#5a9e24"/><rect x="-5" y="175" width="80" height="20" rx="4" fill="#5a9e24"/><path fill="#74bf2e" d="M230 0h70v110h-70zm0 170h70v130h-70z"/><rect x="225" y="100" width="80" height="20" rx="4" fill="#5a9e24"/><rect x="225" y="165" width="80" height="20" rx="4" fill="#5a9e24"/><ellipse cx="145" cy="150" rx="30" ry="26" fill="#f9ca24"/><ellipse cx="145" cy="140" rx="22" ry="20" fill="#f9ca24"/><ellipse cx="158" cy="147" rx="14" ry="9" fill="#fff"/><ellipse cx="163" cy="140" rx="10" ry="9" fill="#f9ca24"/><path fill="#f97316" d="m165 148 17-5v10z"/><circle cx="160" cy="137" r="6" fill="#fff"/><circle cx="161" cy="137" r="4" fill="#1a1a1a"/><circle cx="159" cy="136" r="1.5" fill="#fff"/><text x="150" y="290" text-anchor="middle" font-family="Arial Black,Arial" font-size="15" font-weight="900" fill="#333" letter-spacing="2">FLAPPY BIRD</text></svg>