<svg xmlns="http://www.w3.org/2000/svg" width="300" height="300"><rect width="300" height="300" fill="#87ceeb" rx="12"/><path fill="#228b22" d="M0 0h50v160H0zm0 200h50v100H0zM250 0h50v120h-50zm0 180h50v120h-50z"/><rect y="155" width="50" height="10" rx="3" fill="#2d7d32"/><rect y="200" width="50" height="10" rx="3" fill="#2d7d32"/><rect x="250" y="115" width="50" height="10" rx="3" fill="#2d7d32"/><rect x="250" y="180" width="50" height="10" rx="3" fill="#2d7d32"/><ellipse cx="140" cy="145" rx="22" ry="18" fill="#fbbf24"/><path fill="#f97316" d="m162 145 13-7v14z"/><circle cx="148" cy="138" r="4" fill="#1e3a5f"/><circle cx="147" cy="137" r="1.5" fill="#fff"/><rect x="90" y="195" width="55" height="55" rx="6" fill="#f9a825"/><rect x="155" y="195" width="55" height="55" rx="6" fill="#f59563"/><text x="117" y="230" text-anchor="middle" font-family="Arial Black,Arial" font-size="16" font-weight="900" fill="#fff">4</text><text x="182" y="230" text-anchor="middle" font-family="Arial Black,Arial" font-size="14" font-weight="900" fill="#fff">8</text><text x="150" y="285" text-anchor="middle" font-family="Arial Black,Arial" font-size="14" font-weight="900" fill="#333" letter-spacing="2">FLAPPY 2048</text></svg>