<svg xmlns="http://www.w3.org/2000/svg" width="300" height="300"><rect width="300" height="300" fill="#1a0030" rx="12"/><path fill="#4a0080" d="M0 200h300v30H0z"/><path fill="#90f" d="M0 198h300v4H0z"/><path fill="#4a0080" d="M40 160h40v40H40z"/><path fill="#c4f" d="M40 157h40v4H40z"/><path fill="#c4f" d="M37 160h4v40h-4z"/><path fill="#4a0080" d="M120 140h40v60h-40z"/><path fill="#c4f" d="M120 137h40v4h-40z"/><path fill="#c4f" d="M117 140h4v60h-4z"/><path fill="#4a0080" d="M200 120h40v80h-40z"/><path fill="#c4f" d="M200 117h40v4h-40z"/><path fill="#c4f" d="M197 120h4v80h-4z"/><rect x="80" y="152" width="34" height="34" rx="4" fill="#f60" transform="rotate(10 97 169)"/><rect x="82" y="154" width="30" height="30" rx="3" fill="#f80" transform="rotate(10 97 169)"/><circle cx="97" cy="164" r="4" fill="#fff" transform="rotate(10 97 169)"/><text x="150" y="280" text-anchor="middle" font-family="Arial Black,Arial" font-size="13" font-weight="900" fill="#c4f" letter-spacing="2">GEOMETRY DASH LITE</text></svg>