<svg xmlns="http://www.w3.org/2000/svg" width="300" height="300"><rect width="300" height="300" fill="#0a0a0a" rx="12"/><path fill="none" stroke="#7c3aed" stroke-width="4" d="m150 60 44 25v50l-44 25-44-25V85z"/><path fill="none" stroke="#6d28d9" stroke-width="3" d="m150 75 31 17v35l-31 18-31-18V92z"/><path fill="#ef4444" d="m150 25 15 8v17l-15 8-15-8V33z"/><path fill="#3b82f6" d="m209 60 15 8v17l-15 8-15-8V68z"/><path fill="#22c55e" d="m209 130 15 8v17l-15 8-15-8v-17z"/><path fill="#f59e0b" d="m150 165 15 8v17l-15 8-15-8v-17z"/><path fill="#8b5cf6" d="m91 130 15 8v17l-15 8-15-8v-17z"/><path fill="#ec4899" d="m91 60 15 8v17l-15 8-15-8V68z"/><circle cx="150" cy="110" r="10" fill="#7c3aed"/><path fill="#ef4444" opacity=".7" d="m40 220 10 6v12l-10 6-10-6v-12z"/><path fill="#3b82f6" opacity=".7" d="m250 200 10 6v12l-10 6-10-6v-12z"/><path fill="#22c55e" opacity=".5" d="m60 260 10 6v12l-10 6-10-6v-12z"/><path fill="#f59e0b" opacity=".5" d="m230 250 10 6v12l-10 6-10-6v-12z"/><text x="150" y="295" text-anchor="middle" font-family="Arial Black,Arial" font-size="18" font-weight="900" fill="#7c3aed" letter-spacing="4">HEXTRIS</text></svg>