<svg xmlns="http://www.w3.org/2000/svg" width="300" height="300"><defs><linearGradient id="a" x1="0%" y1="0%" x2="0%" y2="100%"><stop offset="0%" style="stop-color:#87ceeb"/><stop offset="60%" style="stop-color:#c9e8f5"/></linearGradient></defs><rect width="300" height="300" fill="url(#a)" rx="12"/><path d="M0 220q50-120 130-90 50 20 90-50 40-50 80-20v240H0Z" fill="#5a9e24"/><path d="M0 230q50-110 130-80 50 20 90-50 40-50 80-20v220H0Z" fill="#74bf2e"/><rect x="145" y="110" width="70" height="36" rx="6" fill="#e53e3e"/><rect x="150" y="98" width="55" height="26" rx="5" fill="#fc8181"/><rect x="152" y="102" width="18" height="16" rx="2" fill="#bfdbfe" opacity=".9"/><rect x="178" y="102" width="18" height="16" rx="2" fill="#bfdbfe" opacity=".9"/><circle cx="162" cy="150" fill="#1a1a1a" r="14"/><circle cx="162" cy="150" r="8" fill="#333"/><circle cx="205" cy="150" fill="#1a1a1a" r="14"/><circle cx="205" cy="150" r="8" fill="#333"/><text x="150" y="290" text-anchor="middle" font-family="Arial Black,Arial" font-size="14" font-weight="900" fill="#1a3a00" letter-spacing="2">HILL RACING</text></svg>