<svg xmlns="http://www.w3.org/2000/svg" width="300" height="300"><rect width="300" height="300" fill="#71b3e6" rx="12"/><rect y="210" width="300" height="90" fill="#5b8c3c" rx="0 0 12 12"/><path fill="#7abf4d" d="M0 200h300v20H0z"/><path fill="#7abf4d" d="M30 130h50v75H30z"/><path fill="#4a7c2f" d="M30 130h50v20H30z"/><path fill="#7abf4d" d="M80 150h50v55H80z"/><path fill="#4a7c2f" d="M80 150h50v20H80z"/><path fill="#8b6914" d="M50 100h40v35H50z"/><rect x="60" y="85" width="30" height="20" rx="3" fill="#a37c1c"/><path fill="#c0875a" d="M140 120h60v85h-60z"/><path fill="#8d5a2a" d="M140 120h60v20h-60z"/><path fill="#5a3010" d="M170 155h20v50h-20z"/><path fill="#bfdbfe" opacity=".7" d="M155 130h16v16h-16zm24 0h16v16h-16z"/><path fill="#c0875a" d="M220 100h50v105h-50z"/><path fill="#8d5a2a" d="M220 100h50v20h-50z"/><text x="150" y="290" text-anchor="middle" font-family="Arial Black,Arial" font-size="13" font-weight="900" fill="#1a3a00" letter-spacing="2">MINECRAFT CLASSIC</text></svg>