<svg xmlns="http://www.w3.org/2000/svg" width="300" height="300"><rect width="300" height="300" fill="#000010" rx="12"/><circle cx="150" cy="150" r="100" fill="none" stroke="#1a1aff" opacity=".3"/><circle cx="150" cy="150" r="70" fill="none" stroke="#1a1aff" opacity=".5"/><circle cx="150" cy="150" r="40" fill="none" stroke="#33f" stroke-width="2" opacity=".7"/><path fill="#0ff" d="m150 108-7 12h14z"/><path fill="#f4f" d="m190 130-8 10 8 12-5-12z"/><path fill="#0ff" d="m170 170 7 12h-14z"/><path fill="#f4f" d="m110 130 8 10-8 12 5-12z"/><circle cx="150" cy="150" r="8" fill="#fff"/><circle cx="150" cy="150" r="5" fill="#0ff"/><circle cx="60" cy="60" r="5" fill="#ff0"/><circle cx="240" cy="80" r="4" fill="#ff0"/><circle cx="200" cy="240" r="5" fill="#ff0"/><circle cx="70" cy="220" r="4" fill="#ff0"/><path fill="none" stroke="#0ff" opacity=".3" d="m150 50-15 30h30z"/><text x="150" y="290" text-anchor="middle" font-family="Arial Black,Arial" font-size="14" font-weight="900" fill="#0ff" letter-spacing="3">RADIUS RAID</text></svg>