<svg xmlns="http://www.w3.org/2000/svg" width="300" height="300"><rect width="300" height="300" fill="#000020" rx="12"/><circle cx="150" cy="80" r="12" fill="#f9a8d4" opacity=".8"/><circle cx="90" cy="180" r="8" fill="#fbbf24" opacity=".6"/><circle cx="210" cy="160" r="6" fill="#93c5fd" opacity=".5"/><path fill="#1a3a5f" stroke="#3b82f6" stroke-width="2" d="M80 120h140l30 60H50z"/><path fill="#1e4a7a" stroke="#3b82f6" stroke-width="2" d="M110 180h80l20 60H90z"/><path fill="#0f2a40" stroke="#1d4ed8" d="m50 180 30-60v60zm200 0-30-60v60z"/><rect x="105" y="145" width="14" height="28" rx="4" fill="#a3e635"/><rect x="99" y="140" width="12" height="14" rx="6" fill="#bef264"/><rect x="87" y="155" width="12" height="8" rx="4" fill="#a3e635" transform="rotate(-20 93 159)"/><rect x="117" y="155" width="12" height="8" rx="4" fill="#a3e635" transform="rotate(20 123 159)"/><rect x="101" y="169" width="8" height="14" rx="4" fill="#a3e635" transform="rotate(-10 105 176)"/><rect x="113" y="169" width="8" height="14" rx="4" fill="#a3e635" transform="rotate(10 117 176)"/><text x="150" y="285" text-anchor="middle" font-family="Arial Black,Arial" font-size="16" font-weight="900" fill="#a3e635" letter-spacing="4">RUN 3</text></svg>