<svg xmlns="http://www.w3.org/2000/svg" width="300" height="300"><rect width="300" height="300" fill="#c8b46a" rx="12"/><rect x="10" y="10" width="280" height="280" fill="#d4bc72" rx="8"/><path fill="#8b6914" d="M10 10h280v18H10zm0 262h280v18H10z"/><path fill="#8b6914" d="M10 10h18v280H10zm262 0h18v280h-18zM80 50h18v120H80z"/><path fill="#8b6914" d="M80 50h140v18H80zm70 50h18v100h-18zM80 200h100v18H80zm120-50h18v122h-18z"/><rect x="100" y="80" width="44" height="34" rx="6" fill="#2d5a1b"/><rect x="106" y="72" width="32" height="22" rx="10" fill="#3a7524"/><rect x="118" y="58" width="8" height="20" rx="3" fill="#2d5a1b" transform="rotate(30 122 68)"/><rect x="190" y="190" width="44" height="34" rx="6" fill="#8b1a1a"/><rect x="196" y="182" width="32" height="22" rx="10" fill="#a52020"/><rect x="208" y="166" width="8" height="20" rx="3" fill="#8b1a1a" transform="rotate(-150 212 176)"/><text x="150" y="295" text-anchor="middle" font-family="Arial Black,Arial" font-size="13" font-weight="900" fill="#5a3a00" letter-spacing="2">TANK TROUBLE</text></svg>